<svg version="1.1" viewBox="0.0 0.0 453.54330708661416 302.3622047244094" fill="none" stroke="none" stroke-linecap="square" stroke-miterlimit="10" xmlns:xlink="http://www.w3.org/1999/xlink" xmlns="http://www.w3.org/2000/svg"><clipPath id="p.0"><path d="m0 0l453.5433 0l0 302.3622l-453.5433 0l0 -302.3622z" clip-rule="nonzero"/></clipPath><g clip-path="url(#p.0)"><path fill="#ffffff" d="m0 0l453.5433 0l0 302.3622l-453.5433 0z" fill-rule="evenodd"/><path fill="#000000" fill-opacity="0.0" d="m0.026246719 -15.999926l453.5433 0l0 321.63782l-453.5433 0z" fill-rule="evenodd"/><path fill="#f27360" d="m160.579 223.47758q0 2.890625 -1.015625 5.15625q-1.0 2.265625 -2.703125 3.78125q-1.6875 1.5 -4.015625 2.1875q-2.3125 0.6875 -4.703125 0.6875l-14.078125 0q-4.390625 0 -7.59375 -0.875q-3.203125 -0.875 -5.90625 -3.203125q-2.703125 -2.328125 -5.21875 -6.28125q-2.515625 -3.96875 -5.65625 -10.25l-40.453125 -76.015625q-3.515625 -6.78125 -7.171875 -14.625q-3.640625 -7.859375 -6.53125 -15.28125l-0.25 0q0.515625 9.046875 0.765625 18.03125q0.25 8.984375 0.25 18.53125l0 85.0625q0 1.265625 -0.703125 2.28125q-0.6875 1.0 -2.390625 1.6875q-1.6875 0.6875 -4.578125 1.0625q-2.890625 0.375 -7.40625 0.375q-4.40625 0 -7.296875 -0.375q-2.890623 -0.375 -4.531248 -1.0625q-1.625 -0.6875 -2.25 -1.6875q-0.625 -1.015625 -0.625 -2.28125l0 -146.125q0 -5.90625 3.453125 -8.859375q3.453123 -2.953125 8.484373 -2.953125l17.71875 0q4.765625 0 8.03125 0.828125q3.265625 0.8125 5.84375 2.703125q2.578125 1.875 4.84375 5.203125q2.265625 3.328125 4.640625 8.234375l31.671875 59.4375q2.765625 5.390625 5.46875 10.609375q2.703125 5.21875 5.203125 10.4375q2.515625 5.203125 4.90625 10.234375q2.390625 5.03125 4.65625 10.046875l0.125 0q-0.390625 -8.796875 -0.578125 -18.34375q-0.1875 -9.546875 -0.1875 -18.21875l0 -76.265625q0 -1.265625 0.75 -2.265625q0.765625 -1.0 2.515625 -1.75q1.765625 -0.765625 4.65625 -1.078125q2.890625 -0.3125 7.40625 -0.3125q4.28125 0 7.171875 0.3125q2.890625 0.3125 4.453125 1.078125q1.578125 0.75 2.203125 1.75q0.625 1.0 0.625 2.265625l0 146.125z" fill-rule="nonzero"/><path fill="#9aaaba" d="m292.39133 186.29008q0 12.8125 -4.78125 22.5q-4.765625 9.671875 -12.9375 16.140625q-8.171875 6.46875 -19.109375 9.734375q-10.921875 3.265625 -23.359375 3.265625q-8.421875 0 -15.65625 -1.390625q-7.21875 -1.375 -12.75 -3.3125q-5.515625 -1.953125 -9.234375 -4.09375q-3.703125 -2.140625 -5.34375 -3.765625q-1.625 -1.640625 -2.3125 -4.71875q-0.6875 -3.078125 -0.6875 -8.859375q0 -3.890625 0.25 -6.53125q0.25 -2.640625 0.8125 -4.265625q0.5625 -1.640625 1.5 -2.328125q0.953125 -0.6875 2.203125 -0.6875q1.765625 0 4.96875 2.078125q3.203125 2.0625 8.21875 4.578125q5.03125 2.515625 12.0 4.59375q6.984375 2.0625 16.15625 2.0625q6.03125 0 10.796875 -1.4375q4.78125 -1.453125 8.109375 -4.09375q3.328125 -2.640625 5.078125 -6.53125q1.765625 -3.890625 1.765625 -8.671875q0 -5.53125 -3.015625 -9.484375q-3.015625 -3.953125 -7.859375 -7.03125q-4.828125 -3.078125 -10.984375 -5.78125q-6.15625 -2.703125 -12.6875 -5.71875q-6.53125 -3.015625 -12.6875 -6.84375q-6.15625 -3.828125 -11.0 -9.171875q-4.828125 -5.34375 -7.84375 -12.625q-3.015625 -7.296875 -3.015625 -17.46875q0 -11.6875 4.328125 -20.546875q4.328125 -8.859375 11.671875 -14.703125q7.359375 -5.84375 17.34375 -8.734375q10.0 -2.890625 21.1875 -2.890625q5.765625 0 11.546875 0.890625q5.78125 0.875 10.8125 2.390625q5.03125 1.5 8.921875 3.390625q3.890625 1.875 5.140625 3.140625q1.265625 1.25 1.703125 2.140625q0.4375 0.875 0.75 2.328125q0.3125 1.4375 0.4375 3.640625q0.140625 2.1875 0.140625 5.453125q0 3.640625 -0.203125 6.15625q-0.1875 2.515625 -0.625 4.15625q-0.4375 1.625 -1.25 2.375q-0.8125 0.75 -2.203125 0.75q-1.375 0 -4.390625 -1.75q-3.015625 -1.765625 -7.421875 -3.828125q-4.390625 -2.078125 -10.171875 -3.765625q-5.78125 -1.703125 -12.6875 -1.703125q-5.40625 0 -9.4375 1.328125q-4.015625 1.3125 -6.71875 3.640625q-2.703125 2.3125 -4.015625 5.578125q-1.3125 3.265625 -1.3125 6.921875q0 5.390625 2.953125 9.359375q2.953125 3.953125 7.90625 7.03125q4.96875 3.078125 11.25 5.78125q6.28125 2.703125 12.8125 5.71875q6.53125 3.015625 12.8125 6.84375q6.28125 3.828125 11.1875 9.171875q4.90625 5.34375 7.921875 12.578125q3.015625 7.21875 3.015625 17.015625z" fill-rule="nonzero"/><path fill="#9fc2bb" d="m438.26904 230.77446q0 1.375 -0.515625 2.328125q-0.5 0.9375 -2.390625 1.5625q-1.875 0.625 -5.515625 0.875q-3.640625 0.25 -9.921875 0.25q-5.28125 0 -8.421875 -0.25q-3.140625 -0.25 -4.96875 -0.9375q-1.8125 -0.6875 -2.578125 -1.75q-0.75 -1.078125 -1.25 -2.59375l-14.578125 -36.3125q-2.640625 -6.15625 -5.15625 -10.921875q-2.5 -4.78125 -5.578125 -7.984375q-3.078125 -3.203125 -7.109375 -4.828125q-4.015625 -1.640625 -9.296875 -1.640625l-10.296875 0l0 61.953125q0 1.25 -0.828125 2.265625q-0.8125 1.0 -2.703125 1.625q-1.875 0.625 -5.015625 1.0q-3.140625 0.375 -8.046875 0.375q-4.765625 0 -7.96875 -0.375q-3.203125 -0.375 -5.09375 -1.0q-1.890625 -0.625 -2.640625 -1.625q-0.75 -1.015625 -0.75 -2.265625l0 -147.64062q0 -5.53125 2.828125 -7.984375q2.828125 -2.453125 6.96875 -2.453125l42.09375 0q6.40625 0 10.546875 0.25q4.15625 0.25 7.546875 0.640625q9.796875 1.375 17.640625 4.765625q7.859375 3.390625 13.328125 8.859375q5.46875 5.46875 8.359375 12.953125q2.890625 7.46875 2.890625 17.140625q0 8.171875 -2.078125 14.890625q-2.0625 6.71875 -6.09375 12.0q-4.015625 5.28125 -9.921875 9.171875q-5.90625 3.890625 -13.453125 6.28125q3.65625 1.765625 6.859375 4.28125q3.203125 2.5 6.03125 6.09375q2.828125 3.578125 5.328125 8.171875q2.515625 4.578125 4.90625 10.359375l13.703125 32.03125q1.875 4.78125 2.5 6.984375q0.640625 2.1875 0.640625 3.453125zm-42.59375 -110.328125q0 -8.046875 -3.65625 -13.5625q-3.640625 -5.53125 -11.9375 -7.796875q-2.5 -0.625 -5.703125 -1.0q-3.203125 -0.375 -8.859375 -0.375l-14.828125 0l0 46.109375l16.828125 0q7.046875 0 12.3125 -1.6875q5.28125 -1.703125 8.796875 -4.78125q3.515625 -3.078125 5.28125 -7.34375q1.765625 -4.28125 1.765625 -9.5625z" fill-rule="nonzero"/></g></svg>