<svg version="1.1" viewBox="0.0 0.0 453.54330708661416 302.3622047244094" fill="none" stroke="none" stroke-linecap="square" stroke-miterlimit="10" xmlns:xlink="http://www.w3.org/1999/xlink" xmlns="http://www.w3.org/2000/svg"><clipPath id="ge2f3fbad5e_0_3.0"><path d="m0 0l453.5433 0l0 302.3622l-453.5433 0l0 -302.3622z" clip-rule="nonzero"/></clipPath><g clip-path="url(#ge2f3fbad5e_0_3.0)"><path fill="#ffffff" d="m0 0l453.5433 0l0 302.3622l-453.5433 0z" fill-rule="evenodd"/><path fill="#fbe6e1" fill-opacity="0.7662" d="m-132.0 -52.0l648.8504 0l0 381.10236l-648.8504 0z" fill-rule="evenodd"/><path stroke="#595959" stroke-width="1.0" stroke-linejoin="round" stroke-linecap="butt" d="m-132.0 -52.0l648.8504 0l0 381.10236l-648.8504 0z" fill-rule="evenodd"/><path fill="#000000" fill-opacity="0.0" d="m3.3385828 -0.0131233595l446.86612 0l0 302.3622l-446.86612 0z" fill-rule="evenodd"/><path fill="#f27360" d="m110.82409 126.42653q0 1.328125 -0.46875 2.375q-0.453125 1.046875 -1.234375 1.75q-0.78125 0.6875 -1.859375 1.0q-1.0625 0.3125 -2.171875 0.3125l-6.46875 0q-2.03125 0 -3.515625 -0.390625q-1.46875 -0.40625 -2.71875 -1.46875q-1.234375 -1.078125 -2.390625 -2.90625q-1.15625 -1.828125 -2.609375 -4.71875l-18.640625 -35.015625q-1.609375 -3.125 -3.296875 -6.734375q-1.6718788 -3.625 -3.0000038 -7.03125l-0.125 0q0.234375 4.171875 0.34375 8.3125q0.125 4.125 0.125 8.53125l0 39.171875q0 0.578125 -0.328125 1.046875q-0.3125 0.453125 -1.09375 0.78125q-0.78125 0.3125 -2.109375 0.484375q-1.328125 0.171875 -3.40625 0.171875q-2.03125 0 -3.359375 -0.171875q-1.328125 -0.171875 -2.09375 -0.484375q-0.75 -0.328125 -1.046875 -0.78125q-0.28125 -0.46875 -0.28125 -1.046875l0 -67.296875q0 -2.71875 1.59375 -4.078125q1.59375 -1.359375 3.90625 -1.359375l8.15625 0q2.2031288 0 3.7031288 0.375q1.515625 0.375 2.6875 1.25q1.1875 0.859375 2.234375 2.390625q1.046875 1.53125 2.140625 3.796875l14.578125 27.359375q1.28125 2.5 2.515625 4.90625q1.25 2.390625 2.40625 4.796875q1.15625 2.390625 2.25 4.71875q1.109375 2.3125 2.15625 4.625l0.046875 0q-0.171875 -4.046875 -0.265625 -8.4375q-0.078125 -4.40625 -0.078125 -8.40625l0 -35.125q0 -0.578125 0.34375 -1.03125q0.359375 -0.46875 1.15625 -0.8125q0.8125 -0.359375 2.140625 -0.5q1.34375 -0.140625 3.421875 -0.140625q1.96875 0 3.296875 0.140625q1.328125 0.140625 2.046875 0.5q0.734375 0.34375 1.015625 0.8125q0.296875 0.453125 0.296875 1.03125l0 67.296875z" fill-rule="nonzero"/><path fill="#6e6f71" d="m146.02994 130.9734q0 0.390625 -0.265625 0.59375q-0.25 0.1875 -0.71875 0.28125q-0.453125 0.09375 -1.328125 0.09375q-0.84375 0 -1.359375 -0.09375q-0.5 -0.09375 -0.734375 -0.28125q-0.21875 -0.203125 -0.21875 -0.59375l0 -2.921875q-1.921875 2.046875 -4.28125 3.1875q-2.359375 1.140625 -4.984375 1.140625q-2.3125 0 -4.1874924 -0.609375q-1.875 -0.59375 -3.203125 -1.734375q-1.3125 -1.140625 -2.046875 -2.796875q-0.71875 -1.671875 -0.71875 -3.78125q0 -2.46875 1.0 -4.296875q1.015625 -1.828125 2.890625 -3.03125q1.890625 -1.203125 4.6249924 -1.796875q2.734375 -0.609375 6.15625 -0.609375l4.03125 0l0 -2.28125q0 -1.6875 -0.359375 -2.984375q-0.34375 -1.3125 -1.15625 -2.171875q-0.796875 -0.859375 -2.0625 -1.296875q-1.265625 -0.4375 -3.125 -0.4375q-1.984375 0 -3.5625 0.46875q-1.578125 0.46875 -2.7656174 1.046875q-1.1875 0.5625 -1.984375 1.03125q-0.796875 0.46875 -1.1875 0.46875q-0.265625 0 -0.46875 -0.125q-0.1875 -0.125 -0.328125 -0.390625q-0.140625 -0.265625 -0.21875 -0.671875q-0.0625 -0.40625 -0.0625 -0.890625q0 -0.8125 0.109375 -1.28125q0.125 -0.46875 0.5625 -0.890625q0.4375 -0.4375 1.515625 -1.0q1.078125 -0.578125 2.4687424 -1.046875q1.40625 -0.46875 3.0625 -0.78125q1.65625 -0.3125 3.359375 -0.3125q3.15625 0 5.359375 0.71875q2.21875 0.71875 3.578125 2.109375q1.375 1.375 1.984375 3.4375q0.625 2.046875 0.625 4.78125l0 19.75zm-5.34375 -13.375l-4.578125 0q-2.21875 0 -3.84375 0.375q-1.625 0.375 -2.703125 1.109375q-1.078125 0.734375 -1.5781174 1.765625q-0.5 1.015625 -0.5 2.34375q0 2.28125 1.4374924 3.640625q1.453125 1.34375 4.0625 1.34375q2.109375 0 3.90625 -1.078125q1.8125 -1.078125 3.796875 -3.28125l0 -6.21875zm40.428604 13.34375q0 0.265625 -0.140625 0.453125q-0.125 0.171875 -0.421875 0.296875q-0.28125 0.125 -0.8125 0.1875q-0.515625 0.0625 -1.296875 0.0625q-0.8125 0 -1.34375 -0.0625q-0.515625 -0.0625 -0.8125 -0.1875q-0.28125 -0.125 -0.421875 -0.296875q-0.125 -0.1875 -0.125 -0.453125l0 -17.15625q0 -2.5 -0.390625 -4.03125q-0.390625 -1.53125 -1.140625 -2.640625q-0.734375 -1.109375 -1.9375 -1.6875q-1.1875 -0.59375 -2.75 -0.59375q-2.015625 0 -4.03125 1.4375q-2.015625 1.4375 -4.234375 4.203125l0 20.46875q0 0.265625 -0.125 0.453125q-0.125 0.171875 -0.421875 0.296875q-0.296875 0.125 -0.8125 0.1875q-0.515625 0.0625 -1.328125 0.0625q-0.78125 0 -1.3125 -0.0625q-0.515625 -0.0625 -0.828125 -0.1875q-0.3125 -0.125 -0.421875 -0.296875q-0.109375 -0.1875 -0.109375 -0.453125l0 -29.296875q0 -0.25 0.09375 -0.421875q0.09375 -0.1875 0.390625 -0.328125q0.296875 -0.15625 0.75 -0.203125q0.453125 -0.046875 1.203125 -0.046875q0.71875 0 1.1875 0.046875q0.46875 0.046875 0.71875 0.203125q0.265625 0.140625 0.375 0.328125q0.125 0.171875 0.125 0.421875l0 3.875q2.46875 -2.765625 4.921875 -4.046875q2.46875 -1.296875 4.96875 -1.296875q2.9375 0 4.9375 1.0q2.0 1.0 3.234375 2.65625q1.234375 1.65625 1.765625 3.890625q0.546875 2.21875 0.546875 5.34375l0 17.875zm37.036194 -14.96875q0 3.578125 -0.953125 6.59375q-0.9375 3.0 -2.8125 5.1875q-1.859375 2.171875 -4.6875 3.40625q-2.8125 1.21875 -6.515625 1.21875q-3.609375 0 -6.296875 -1.078125q-2.6875 -1.078125 -4.484375 -3.125q-1.78125 -2.046875 -2.671875 -4.96875q-0.875 -2.9375 -0.875 -6.65625q0 -3.578125 0.921875 -6.578125q0.9375 -3.015625 2.8125 -5.1875q1.875 -2.1875 4.671875 -3.390625q2.796875 -1.21875 6.546875 -1.21875q3.609375 0 6.28125 1.078125q2.6875 1.078125 4.484375 3.125q1.796875 2.046875 2.6875 4.984375q0.890625 2.921875 0.890625 6.609375zm-5.65625 0.359375q0 -2.375 -0.453125 -4.484375q-0.4375 -2.125 -1.453125 -3.71875q-1.0 -1.59375 -2.71875 -2.515625q-1.71875 -0.9375 -4.296875 -0.9375q-2.375 0 -4.09375 0.84375q-1.703125 0.84375 -2.8125 2.390625q-1.09375 1.546875 -1.640625 3.671875q-0.53125 2.109375 -0.53125 4.609375q0 2.40625 0.4375 4.53125q0.4375 2.109375 1.453125 3.6875q1.03125 1.578125 2.75 2.515625q1.734375 0.921875 4.3125 0.921875q2.34375 0 4.0625 -0.84375q1.71875 -0.84375 2.828125 -2.375q1.109375 -1.53125 1.625 -3.640625q0.53125 -2.125 0.53125 -4.65625z" fill-rule="nonzero"/><path fill="#9aaaba" d="m273.62988 109.30153q0 5.90625 -2.203125 10.359375q-2.203125 4.453125 -5.96875 7.4375q-3.75 2.984375 -8.78125 4.484375q-5.0312653 1.5 -10.76564 1.5q-3.875 0 -7.203125 -0.640625q-3.328125 -0.625 -5.875 -1.515625q-2.546875 -0.90625 -4.265625 -1.890625q-1.703125 -0.984375 -2.453125 -1.734375q-0.75 -0.75 -1.078125 -2.171875q-0.3125 -1.421875 -0.3125 -4.078125q0 -1.796875 0.109375 -3.015625q0.125 -1.21875 0.375 -1.96875q0.265625 -0.75 0.703125 -1.0625q0.4375 -0.328125 1.015625 -0.328125q0.8125 0 2.28125 0.96875q1.484375 0.953125 3.796875 2.109375q2.3125 1.15625 5.515625 2.109375q3.21875 0.953125 7.453125 0.953125q2.765625 0 4.96875 -0.65625q2.203125 -0.671875 3.734375 -1.890625q1.5312653 -1.21875 2.3437653 -3.0q0.8125 -1.796875 0.8125 -4.0q0 -2.546875 -1.390625 -4.359375q-1.3906403 -1.828125 -3.6250153 -3.25q-2.21875 -1.421875 -5.0625 -2.65625q-2.828125 -1.25 -5.84375 -2.640625q-3.0 -1.390625 -5.84375 -3.15625q-2.828125 -1.765625 -5.0625 -4.21875q-2.21875 -2.46875 -3.609375 -5.8125q-1.390625 -3.359375 -1.390625 -8.046875q0 -5.390625 1.984375 -9.46875q2.0 -4.078125 5.390625 -6.765625q3.390625 -2.6875 7.984375 -4.015625q4.609375 -1.34375 9.75 -1.34375q2.671875 0 5.3281403 0.40625q2.65625 0.40625 4.96875 1.109375q2.328125 0.6875 4.109375 1.5625q1.796875 0.859375 2.375 1.4375q0.578125 0.578125 0.78125 0.984375q0.203125 0.40625 0.34375 1.078125q0.15625 0.65625 0.203125 1.671875q0.0625 1.015625 0.0625 2.515625q0 1.6875 -0.09375 2.84375q-0.078125 1.15625 -0.28125 1.90625q-0.203125 0.75 -0.578125 1.09375q-0.375 0.34375 -1.015625 0.34375q-0.640625 0 -2.03125 -0.796875q-1.375 -0.8125 -3.40625 -1.765625q-2.03125 -0.953125 -4.6875 -1.734375q-2.6562653 -0.78125 -5.8437653 -0.78125q-2.484375 0 -4.34375 0.609375q-1.84375 0.59375 -3.09375 1.671875q-1.25 1.0625 -1.859375 2.578125q-0.59375 1.5 -0.59375 3.171875q0 2.5 1.359375 4.328125q1.359375 1.8125 3.640625 3.234375q2.28125 1.40625 5.171875 2.65625q2.90625 1.25 5.9062653 2.640625q3.015625 1.375 5.90625 3.140625q2.890625 1.765625 5.140625 4.234375q2.265625 2.453125 3.65625 5.78125q1.390625 3.328125 1.390625 7.84375z" fill-rule="nonzero"/><path fill="#6e6f71" d="m304.14703 130.9734q0 0.390625 -0.265625 0.59375q-0.25 0.1875 -0.71875 0.28125q-0.453125 0.09375 -1.328125 0.09375q-0.84375 0 -1.359375 -0.09375q-0.5 -0.09375 -0.734375 -0.28125q-0.21875 -0.203125 -0.21875 -0.59375l0 -2.921875q-1.921875 2.046875 -4.28125 3.1875q-2.359375 1.140625 -4.984375 1.140625q-2.3125 0 -4.1875 -0.609375q-1.875 -0.59375 -3.203125 -1.734375q-1.3125 -1.140625 -2.046875 -2.796875q-0.71875 -1.671875 -0.71875 -3.78125q0 -2.46875 1.0 -4.296875q1.015625 -1.828125 2.890625 -3.03125q1.890625 -1.203125 4.625 -1.796875q2.734375 -0.609375 6.15625 -0.609375l4.03125 0l0 -2.28125q0 -1.6875 -0.359375 -2.984375q-0.34375 -1.3125 -1.15625 -2.171875q-0.796875 -0.859375 -2.0625 -1.296875q-1.265625 -0.4375 -3.125 -0.4375q-1.984375 0 -3.5625 0.46875q-1.578125 0.46875 -2.765625 1.046875q-1.1875 0.5625 -1.984375 1.03125q-0.796875 0.46875 -1.1875 0.46875q-0.265625 0 -0.46875 -0.125q-0.1875 -0.125 -0.328125 -0.390625q-0.140625 -0.265625 -0.21875 -0.671875q-0.0625 -0.40625 -0.0625 -0.890625q0 -0.8125 0.109375 -1.28125q0.125 -0.46875 0.5625 -0.890625q0.4375 -0.4375 1.515625 -1.0q1.078125 -0.578125 2.46875 -1.046875q1.40625 -0.46875 3.0625 -0.78125q1.65625 -0.3125 3.359375 -0.3125q3.15625 0 5.359375 0.71875q2.21875 0.71875 3.578125 2.109375q1.375 1.375 1.984375 3.4375q0.625 2.046875 0.625 4.78125l0 19.75zm-5.34375 -13.375l-4.578125 0q-2.21875 0 -3.84375 0.375q-1.625 0.375 -2.703125 1.109375q-1.078125 0.734375 -1.578125 1.765625q-0.5 1.015625 -0.5 2.34375q0 2.28125 1.4375 3.640625q1.453125 1.34375 4.0625 1.34375q2.109375 0 3.90625 -1.078125q1.8125 -1.078125 3.796875 -3.28125l0 -6.21875zm30.86612 -27.984375q0 0.609375 -0.078125 0.984375q-0.0625 0.375 -0.140625 0.609375q-0.078125 0.21875 -0.21875 0.3125q-0.125 0.078125 -0.3125 0.078125q-0.234375 0 -0.578125 -0.140625q-0.34375 -0.15625 -0.828125 -0.328125q-0.484375 -0.1875 -1.15625 -0.328125q-0.671875 -0.15625 -1.546875 -0.15625q-1.203125 0 -2.046875 0.390625q-0.84375 0.390625 -1.375 1.21875q-0.515625 0.828125 -0.75 2.15625q-0.21875 1.3125 -0.21875 3.203125l0 3.1875l6.546875 0q0.25 0 0.421875 0.125q0.1875 0.109375 0.328125 0.390625q0.15625 0.265625 0.234375 0.6875q0.078125 0.421875 0.078125 1.046875q0 1.171875 -0.296875 1.6875q-0.28125 0.515625 -0.765625 0.515625l-6.546875 0l0 25.6875q0 0.265625 -0.140625 0.453125q-0.125 0.171875 -0.4375 0.296875q-0.296875 0.125 -0.828125 0.1875q-0.515625 0.0625 -1.296875 0.0625q-0.78125 0 -1.296875 -0.0625q-0.515625 -0.0625 -0.828125 -0.1875q-0.3125 -0.125 -0.453125 -0.296875q-0.125 -0.1875 -0.125 -0.453125l0 -25.6875l-4.125 0q-0.53125 0 -0.796875 -0.515625q-0.25 -0.515625 -0.25 -1.6875q0 -0.625 0.0625 -1.046875q0.0625 -0.421875 0.1875 -0.6875q0.140625 -0.28125 0.328125 -0.390625q0.203125 -0.125 0.46875 -0.125l4.125 0l0 -3.03125q0 -3.046875 0.5625 -5.25q0.578125 -2.203125 1.75 -3.59375q1.171875 -1.40625 2.9375 -2.0625q1.78125 -0.671875 4.1875 -0.671875q1.140625 0 2.21875 0.21875q1.078125 0.203125 1.65625 0.453125q0.59375 0.234375 0.78125 0.4375q0.203125 0.1875 0.328125 0.5q0.125 0.3125 0.171875 0.75q0.0625 0.4375 0.0625 1.0625zm27.619202 25.40625q0 1.28125 -0.640625 1.8125q-0.625 0.53125 -1.4375 0.53125l-19.203125 0q0 2.453125 0.484375 4.40625q0.5 1.9375 1.625 3.34375q1.140625 1.40625 2.96875 2.15625q1.828125 0.734375 4.453125 0.734375q2.09375 0 3.71875 -0.328125q1.625 -0.34375 2.8125 -0.765625q1.1875 -0.421875 1.953125 -0.765625q0.765625 -0.34375 1.15625 -0.34375q0.234375 0 0.40625 0.109375q0.1875 0.109375 0.28125 0.34375q0.09375 0.234375 0.140625 0.640625q0.046875 0.40625 0.046875 0.984375q0 0.421875 -0.03125 0.734375q-0.03125 0.3125 -0.078125 0.5625q-0.046875 0.234375 -0.171875 0.4375q-0.109375 0.1875 -0.296875 0.375q-0.171875 0.171875 -1.046875 0.578125q-0.875 0.40625 -2.28125 0.796875q-1.390625 0.390625 -3.234375 0.703125q-1.84375 0.3125 -3.921875 0.3125q-3.609375 0 -6.328125 -1.015625q-2.71875 -1.015625 -4.578125 -3.0q-1.84375 -1.984375 -2.796875 -4.96875q-0.9375 -3.0 -0.9375 -6.96875q0 -3.78125 0.96875 -6.78125q0.984375 -3.015625 2.8125 -5.109375q1.84375 -2.109375 4.4375 -3.234375q2.609375 -1.125 5.84375 -1.125q3.4375 0 5.859375 1.109375q2.4375 1.109375 4.0 2.984375q1.5625 1.875 2.28125 4.40625q0.734375 2.515625 0.734375 5.375l0 0.96875zm-5.390625 -1.59375q0.09375 -4.234375 -1.875 -6.640625q-1.96875 -2.40625 -5.84375 -2.40625q-1.984375 0 -3.484375 0.75q-1.5 0.75 -2.515625 1.984375q-1.0 1.234375 -1.5625 2.890625q-0.546875 1.640625 -0.609375 3.421875l15.890625 0zm28.447937 15.359375q0 0.953125 -0.140625 1.515625q-0.125 0.546875 -0.390625 0.8125q-0.25 0.25 -0.78125 0.484375q-0.515625 0.21875 -1.1875 0.359375q-0.671875 0.15625 -1.421875 0.25q-0.734375 0.09375 -1.484375 0.09375q-2.28125 0 -3.90625 -0.59375q-1.625 -0.609375 -2.671875 -1.828125q-1.046875 -1.21875 -1.515625 -3.078125q-0.46875 -1.875 -0.46875 -4.421875l0 -17.125l-4.109375 0q-0.484375 0 -0.78125 -0.515625q-0.28125 -0.515625 -0.28125 -1.6875q0 -0.625 0.078125 -1.046875q0.078125 -0.421875 0.203125 -0.6875q0.140625 -0.28125 0.34375 -0.390625q0.21875 -0.125 0.484375 -0.125l4.0625 0l0 -6.96875q0 -0.21875 0.109375 -0.40625q0.125 -0.203125 0.421875 -0.34375q0.3125 -0.15625 0.828125 -0.21875q0.53125 -0.0625 1.3125 -0.0625q0.8125 0 1.328125 0.0625q0.515625 0.0625 0.8125 0.21875q0.296875 0.140625 0.421875 0.34375q0.140625 0.1875 0.140625 0.40625l0 6.96875l7.515625 0q0.25 0 0.4375 0.125q0.203125 0.109375 0.34375 0.390625q0.15625 0.265625 0.21875 0.6875q0.078125 0.421875 0.078125 1.046875q0 1.171875 -0.296875 1.6875q-0.296875 0.515625 -0.78125 0.515625l-7.515625 0l0 16.34375q0 3.03125 0.890625 4.578125q0.890625 1.546875 3.203125 1.546875q0.75 0 1.328125 -0.140625q0.59375 -0.15625 1.046875 -0.3125q0.453125 -0.171875 0.78125 -0.3125q0.328125 -0.15625 0.59375 -0.15625q0.15625 0 0.296875 0.09375q0.15625 0.078125 0.234375 0.3125q0.078125 0.21875 0.140625 0.609375q0.078125 0.390625 0.078125 0.96875zm20.436615 2.96875l-3.90625 10.765625q-0.203125 0.53125 -1.0 0.796875q-0.796875 0.28125 -2.421875 0.28125q-0.84375 0 -1.375 -0.078125q-0.515625 -0.078125 -0.796875 -0.28125q-0.265625 -0.1875 -0.296875 -0.515625q-0.03125 -0.328125 0.15625 -0.78125l4.03125 -10.1875q-0.28125 -0.125 -0.546875 -0.421875q-0.265625 -0.296875 -0.359375 -0.625l-10.453125 -27.984375q-0.25 -0.6875 -0.25 -1.078125q0 -0.390625 0.25 -0.609375q0.265625 -0.234375 0.84375 -0.3125q0.59375 -0.078125 1.578125 -0.078125q0.96875 0 1.515625 0.046875q0.5625 0.046875 0.890625 0.1875q0.328125 0.125 0.46875 0.375q0.140625 0.234375 0.3125 0.65625l8.359375 23.5l0.09375 0l8.078125 -23.625q0.1875 -0.625 0.46875 -0.796875q0.28125 -0.1875 0.828125 -0.265625q0.5625 -0.078125 1.59375 -0.078125q0.921875 0 1.5 0.078125q0.59375 0.078125 0.859375 0.3125q0.28125 0.21875 0.28125 0.609375q0 0.390625 -0.1875 0.984375l-10.515625 29.125z" fill-rule="nonzero"/><path fill="#9fc2bb" d="m192.91658 228.56064q0 0.640625 -0.234375 1.078125q-0.234375 0.421875 -1.09375 0.703125q-0.859375 0.28125 -2.515625 0.390625q-1.65625 0.125 -4.515625 0.125q-2.40625 0 -3.84375 -0.125q-1.4375 -0.109375 -2.265625 -0.421875q-0.828125 -0.3125 -1.171875 -0.796875q-0.34375 -0.484375 -0.578125 -1.171875l-6.640625 -16.5625q-1.203125 -2.8125 -2.359375 -4.984375q-1.140625 -2.171875 -2.546875 -3.625q-1.390625 -1.46875 -3.234375 -2.21875q-1.828125 -0.75 -4.234375 -0.75l-4.703125 0l0 28.25q0 0.578125 -0.375 1.03125q-0.359375 0.453125 -1.21875 0.75q-0.859375 0.28125 -2.296875 0.453125q-1.4375 0.171875 -3.671875 0.171875q-2.171875 0 -3.640625 -0.171875q-1.453125 -0.171875 -2.3125 -0.453125q-0.859375 -0.296875 -1.203125 -0.75q-0.34375 -0.453125 -0.34375 -1.03125l0 -67.3125q0 -2.515625 1.28125 -3.625q1.296875 -1.125 3.1875 -1.125l19.1875 0q2.921875 0 4.8125 0.109375q1.890625 0.109375 3.4375 0.28125q4.46875 0.640625 8.046875 2.1875q3.59375 1.546875 6.078125 4.046875q2.5 2.484375 3.8125 5.890625q1.3125 3.40625 1.3125 7.8125q0 3.71875 -0.953125 6.796875q-0.9375 3.0625 -2.765625 5.46875q-1.828125 2.40625 -4.53125 4.1875q-2.6875 1.765625 -6.125 2.859375q1.65625 0.796875 3.109375 1.953125q1.46875 1.140625 2.75 2.78125q1.296875 1.625 2.4375 3.71875q1.15625 2.078125 2.25 4.71875l6.234375 14.609375q0.859375 2.171875 1.140625 3.1875q0.296875 1.0 0.296875 1.5625zm-19.421875 -50.296875q0 -3.671875 -1.671875 -6.1875q-1.65625 -2.515625 -5.4375 -3.546875q-1.140625 -0.28125 -2.609375 -0.453125q-1.453125 -0.171875 -4.03125 -0.171875l-6.765625 0l0 21.015625l7.6875 0q3.203125 0 5.609375 -0.765625q2.40625 -0.78125 4.0 -2.1875q1.609375 -1.40625 2.40625 -3.34375q0.8125 -1.953125 0.8125 -4.359375zm92.05437 14.09375q0 10.203125 -2.671875 17.453125q-2.65625 7.234375 -7.6406403 11.828125q-4.96875 4.578125 -12.109375 6.734375q-7.125 2.140625 -16.984375 2.140625l-17.703125 0q-1.890625 0 -3.1875 -1.109375q-1.28125 -1.125 -1.28125 -3.640625l0 -64.625q0 -2.515625 1.28125 -3.625q1.296875 -1.125 3.1875 -1.125l19.015625 0q9.921875 0 16.8125 2.328125q6.90625 2.3125 11.625 6.875q4.7343903 4.546875 7.1875153 11.25q2.46875 6.6875 2.46875 15.515625zm-15.57814 0.515625q0 -5.265625 -1.234375 -9.796875q-1.21875 -4.53125 -3.953125 -7.84375q-2.71875 -3.328125 -6.984375 -5.1875q-4.265625 -1.859375 -11.203125 -1.859375l-7.609375 0l0 50.40625l7.84375 0q6.1875 0 10.421875 -1.59375q4.25 -1.609375 7.078125 -4.84375q2.84375 -3.234375 4.234375 -8.046875q1.40625 -4.8125 1.40625 -11.234375zm69.55403 -30.296875q0 1.71875 -0.140625 2.890625q-0.140625 1.171875 -0.46875 1.859375q-0.3125 0.6875 -0.71875 1.03125q-0.390625 0.34375 -0.90625 0.34375l-24.234375 0l0 19.9375l22.75 0q0.515625 0 0.90625 0.28125q0.40625 0.28125 0.71875 0.96875q0.3125 0.6875 0.453125 1.84375q0.15625 1.140625 0.15625 2.859375q0 1.71875 -0.15625 2.875q-0.140625 1.140625 -0.453125 1.890625q-0.3125 0.734375 -0.71875 1.046875q-0.390625 0.3125 -0.90625 0.3125l-22.75 0l0 27.625q0 0.625 -0.34375 1.09375q-0.34375 0.453125 -1.234375 0.765625q-0.890625 0.3125 -2.328125 0.484375q-1.421875 0.171875 -3.65625 0.171875q-2.171875 0 -3.640625 -0.171875q-1.453125 -0.171875 -2.3125 -0.484375q-0.859375 -0.3125 -1.234375 -0.765625q-0.375 -0.46875 -0.375 -1.09375l0 -67.203125q0 -2.515625 1.28125 -3.625q1.296875 -1.125 3.1875 -1.125l34.890625 0q0.515625 0 0.90625 0.3125q0.40625 0.3125 0.71875 1.03125q0.328125 0.71875 0.46875 1.921875q0.140625 1.203125 0.140625 2.921875z" fill-rule="nonzero"/></g></svg>